Video:
Format : MPEG Video
Format version : Version 2
Format profile : Main@Main
Format settings, BVOP : Yes
Format settings, Matrix : Default
Format settings, GOP : M=3, N=13
Duration : 4mn 24s
Bit rate mode : Variable
Bit rate : 4 195 Kbps
Nominal bit rate : 7 700 Kbps
Width : 720 pixels
Height : 480 pixels
Display aspect ratio : 4:3
Frame rate : 29.970 fps
Standard : NTSC
Color space : YUV
Chroma subsampling : 4:2:0
Bit depth : 8 bits
Scan type : Interlaced
Scan order : Top Field First
Bits/(Pixel*Frame) : 0.405
Stream size : 132 MiB (72%)

Audio:
Format : PCM
Format settings, Endianness : Big
Format settings, Sign : Signed
Muxing mode : DVD-Video
Duration : 4mn 23s
Bit rate mode : Constant
Bit rate : 1 536 Kbps
Channel(s) : 2 channels
Channel positions : Front: L R
Sampling rate : 48.0 KHz
Bit depth : 16 bits
Stream size : 48.3 MiB (26%)
